<svg width="150" height="150" viewBox="0 0 150 150" fill="none" xmlns="http://www.w3.org/2000/svg">
<path fill-rule="evenodd" clip-rule="evenodd" d="M60 32.6325C60 29.1075 63.105 26.25 66.945 26.25H113.055C116.895 26.25 120 29.1075 120 32.6325V57.375C120 60.9 116.895 63.7575 113.055 63.7575H66.945C63.105 63.75 60 60.8925 60 57.3675V32.6325Z" fill="#E6EBEA"/>
<path d="M48.465 142.5H127.792C131.767 142.5 135 139.14 135 135V45C135 40.86 131.775 37.5 127.785 37.5H48.465C44.475 37.5 41.25 40.86 41.25 45V135C41.25 139.14 44.475 142.5 48.465 142.5Z" fill="#E6EBEA"/>
<path d="M150 118.125C150 126.579 146.642 134.686 140.664 140.664C134.686 146.642 126.579 150 118.125 150C109.671 150 101.564 146.642 95.586 140.664C89.6082 134.686 86.25 126.579 86.25 118.125C86.25 109.671 89.6082 101.564 95.586 95.586C101.564 89.6082 109.671 86.25 118.125 86.25C126.579 86.25 134.686 89.6082 140.664 95.586C146.642 101.564 150 109.671 150 118.125Z" fill="#E6EBEA"/>
<path fill-rule="evenodd" clip-rule="evenodd" d="M46.3125 18.75C46.3125 17.7554 46.7076 16.8016 47.4108 16.0984C48.1141 15.3951 49.0679 15 50.0625 15H99.885C100.88 15 101.833 15.3951 102.537 16.0984C103.24 16.8016 103.635 17.7554 103.635 18.75V47.8125C103.635 48.8071 103.24 49.7609 102.537 50.4641C101.833 51.1674 100.88 51.5625 99.885 51.5625H50.0625C49.0679 51.5625 48.1141 51.1674 47.4108 50.4641C46.7076 49.7609 46.3125 48.8071 46.3125 47.8125V18.75ZM53.8125 22.5V44.0625H96.135V22.5H53.8125Z" fill="#003A2B"/>
<path fill-rule="evenodd" clip-rule="evenodd" d="M33.75 127.5V37.5H48.75V30H33.75C31.7609 30 29.8532 30.7902 28.4467 32.1967C27.0402 33.6032 26.25 35.5109 26.25 37.5V127.5C26.25 129.489 27.0402 131.397 28.4467 132.803C29.8532 134.21 31.7609 135 33.75 135H92.655C90.2144 132.85 88.1399 130.316 86.5125 127.5H33.75ZM116.25 82.725C118.88 83.07 121.38 83.72 123.75 84.675V37.5C123.75 35.5109 122.96 33.6032 121.553 32.1967C120.147 30.7902 118.239 30 116.25 30H101.25V37.5H116.25V82.725Z" fill="#003A2B"/>
<path fill-rule="evenodd" clip-rule="evenodd" d="M112.5 135C118.467 135 124.19 132.629 128.41 128.41C132.629 124.19 135 118.467 135 112.5C135 106.533 132.629 100.81 128.41 96.5901C124.19 92.3705 118.467 90 112.5 90C106.533 90 100.81 92.3705 96.5901 96.5901C92.3705 100.81 90 106.533 90 112.5C90 118.467 92.3705 124.19 96.5901 128.41C100.81 132.629 106.533 135 112.5 135ZM112.5 142.5C120.456 142.5 128.087 139.339 133.713 133.713C139.339 128.087 142.5 120.456 142.5 112.5C142.5 104.544 139.339 96.9129 133.713 91.2868C128.087 85.6607 120.456 82.5 112.5 82.5C104.544 82.5 96.9129 85.6607 91.2868 91.2868C85.6607 96.9129 82.5 104.544 82.5 112.5C82.5 120.456 85.6607 128.087 91.2868 133.713C96.9129 139.339 104.544 142.5 112.5 142.5Z" fill="#003A2B"/>
<path fill-rule="evenodd" clip-rule="evenodd" d="M124.365 104.115C124.75 104.423 125.07 104.803 125.308 105.235C125.545 105.666 125.695 106.14 125.75 106.63C125.804 107.12 125.761 107.615 125.624 108.088C125.487 108.562 125.258 109.003 124.95 109.388L116.655 119.753C115.996 120.576 115.17 121.251 114.232 121.734C113.295 122.217 112.265 122.496 111.212 122.554C110.159 122.612 109.105 122.448 108.12 122.071C107.135 121.694 106.24 121.114 105.495 120.368L100.275 115.155C99.5717 114.451 99.177 113.496 99.1777 112.501C99.1784 111.506 99.5744 110.552 100.279 109.849C100.983 109.146 101.937 108.751 102.932 108.752C103.928 108.752 104.882 109.148 105.585 109.853L110.805 115.065L119.092 104.7C119.4 104.315 119.781 103.995 120.212 103.757C120.644 103.52 121.118 103.369 121.607 103.315C122.097 103.261 122.593 103.303 123.066 103.441C123.539 103.578 123.98 103.807 124.365 104.115Z" fill="#003A2B"/>
</svg>
